<?xml version="1.0" encoding="UTF-8" standalone="no"?>
<svg
   xmlns:osb="http://www.openswatchbook.org/uri/2009/osb"
   xmlns:dc="http://purl.org/dc/elements/1.1/"
   xmlns:cc="http://creativecommons.org/ns#"
   xmlns:rdf="http://www.w3.org/1999/02/22-rdf-syntax-ns#"
   xmlns:svg="http://www.w3.org/2000/svg"
   xmlns="http://www.w3.org/2000/svg"
   xmlns:sodipodi="http://sodipodi.sourceforge.net/DTD/sodipodi-0.dtd"
   xmlns:inkscape="http://www.inkscape.org/namespaces/inkscape"
   height="48"
   id="Layer_1"
   version="1.1"
   viewBox="0 0 48 48"
   width="48"
   xml:space="preserve"
   inkscape:version="0.91 r13725"
   sodipodi:docname="menu.svg"><metadata
     id="metadata3353"><rdf:RDF><cc:Work
         rdf:about=""><dc:format>image/svg+xml</dc:format><dc:type
           rdf:resource="http://purl.org/dc/dcmitype/StillImage" /><dc:title></dc:title></cc:Work></rdf:RDF></metadata><defs
     id="defs3351"><linearGradient
       id="linearGradient5852"
       osb:paint="solid"><stop
         style="stop-color:#550000;stop-opacity:1;"
         offset="0"
         id="stop5854" /></linearGradient></defs><sodipodi:namedview
     pagecolor="#ffffff"
     bordercolor="#666666"
     borderopacity="1"
     objecttolerance="10"
     gridtolerance="10"
     guidetolerance="10"
     inkscape:pageopacity="0"
     inkscape:pageshadow="2"
     inkscape:window-width="1920"
     inkscape:window-height="1017"
     id="namedview3349"
     showgrid="true"
     inkscape:zoom="12.435161"
     inkscape:cx="-4.518415"
     inkscape:cy="28.279788"
     inkscape:window-x="-8"
     inkscape:window-y="-8"
     inkscape:window-maximized="1"
     inkscape:current-layer="g5858"
     inkscape:snap-bbox="false"
     inkscape:snap-bbox-midpoints="false"
     inkscape:snap-bbox-edge-midpoints="false"
     inkscape:snap-global="true"
     inkscape:snap-object-midpoints="false"
     inkscape:snap-page="true"
     showguides="true"
     inkscape:snap-others="false"
     inkscape:snap-nodes="false"><inkscape:grid
       type="xygrid"
       id="grid3436" /></sodipodi:namedview><g
     id="g5858"><g
       transform="matrix(1.4628799,0,0,1.1977582,1.7727196,4.9211765)"
       style="font-style:normal;font-weight:normal;font-size:6.85127544px;line-height:125%;font-family:sans-serif;letter-spacing:0px;word-spacing:0px;fill:#000000;fill-opacity:1;stroke:none;stroke-width:1px;stroke-linecap:butt;stroke-linejoin:miter;stroke-opacity:1"
       id="text3355"><path
         inkscape:connector-curvature="0"
         d="m 5.6998119,4.2111506 1.0069501,0 1.2745781,3.3988749 1.2812688,-3.3988749 1.0069501,0 0,4.9946065 -0.6590337,0 0,-4.3857529 -1.2879595,3.4256377 -0.6791059,0 -1.2879595,-3.4256377 0,4.3857529 -0.6556885,0 0,-4.9946065 z"
         id="path7365" /><path
         inkscape:connector-curvature="0"
         d="m 11.614389,4.2111506 3.15801,0 0,0.5687094 -2.482249,0 0,1.4786444 2.378543,0 0,0.5687094 -2.378543,0 0,1.809834 2.542465,0 0,0.5687093 -3.218226,0 0,-4.9946065 z"
         id="path7367" /><path
         inkscape:connector-curvature="0"
         d="m 15.949963,4.2111506 0.909935,0 2.214621,4.1783413 0,-4.1783413 0.655688,0 0,4.9946065 -0.909935,0 -2.214621,-4.1783413 0,4.1783413 -0.655688,0 0,-4.9946065 z"
         id="path7369" /><path
         inkscape:connector-curvature="0"
         d="m 20.998094,4.2111506 0.679106,0 0,3.0342318 q 0,0.8028839 0.291045,1.1574909 0.291046,0.3512617 0.943389,0.3512617 0.648998,0 0.940043,-0.3512617 0.291045,-0.354607 0.291045,-1.1574909 l 0,-3.0342318 0.679106,0 0,3.1178656 q 0,0.976842 -0.485075,1.475299 -0.481731,0.4984571 -1.425119,0.4984571 -0.946734,0 -1.43181,-0.4984571 -0.48173,-0.498457 -0.48173,-1.475299 l 0,-3.1178656 z"
         id="path7371" /></g><path
       style="fill:#000000;fill-opacity:1;stroke:#000000;stroke-width:0;stroke-linejoin:miter;stroke-miterlimit:4;stroke-dasharray:none;stroke-opacity:1"
       d="m 15.949473,19.979521 21.989896,0 0,3.005948 -21.962246,0 z"
       id="path5870"
       inkscape:connector-curvature="0" /><path
       style="fill:#000000;fill-opacity:1;stroke:#000000;stroke-width:0;stroke-linejoin:bevel;stroke-miterlimit:4;stroke-dasharray:none;stroke-opacity:1"
       d="m 13.785269,22.985469 -3.704707,0 0,-3.005948 3.704707,0 z"
       id="rect3413-8"
       inkscape:connector-curvature="0" /><path
       style="fill:#000000;fill-opacity:1;stroke:#000000;stroke-width:0;stroke-linejoin:bevel;stroke-miterlimit:4;stroke-dasharray:none;stroke-opacity:1"
       d="m 16.02989,25.948223 21.969491,0 0,3.086365 -21.941775,0 z"
       id="path5874"
       inkscape:connector-curvature="0" /><path
       style="fill:#000000;fill-opacity:1;stroke:#000000;stroke-width:0;stroke-linejoin:bevel;stroke-miterlimit:4;stroke-dasharray:none;stroke-opacity:1"
       d="m 13.801733,29.034588 -3.694211,0 0,-3.086365 3.664625,0 z"
       id="rect3413-8-2"
       inkscape:connector-curvature="0" /><path
       style="fill:#000000;fill-opacity:1;stroke:#000000;stroke-width:0;stroke-linejoin:bevel;stroke-miterlimit:4;stroke-dasharray:none;stroke-opacity:1"
       d="m 16.093144,31.975465 21.937864,0 0,3.086366 -21.910291,0 z"
       id="path5878"
       inkscape:connector-curvature="0" /><path
       style="fill:#000000;fill-opacity:1;stroke:#000000;stroke-width:0;stroke-linejoin:bevel;stroke-miterlimit:4;stroke-dasharray:none;stroke-opacity:1"
       d="m 13.788611,35.061831 -3.664625,0 0,-3.086366 3.664625,0 z"
       id="rect3413-8-26"
       inkscape:connector-curvature="0" /></g></svg>